<?xml version="1.0" standalone="no"?>
<!DOCTYPE svg PUBLIC "-//W3C//DTD SVG 1.1//EN" "http://www.w3.org/Graphics/SVG/1.1/DTD/svg11.dtd" >
<svg xmlns="http://www.w3.org/2000/svg">
<metadata></metadata>
<defs>
<font id="DefaultIconFontRegular" horiz-adv-x="2048" >
<font-face units-per-em="2048" ascent="1638" descent="-410" />
<missing-glyph horiz-adv-x="500" />
<glyph horiz-adv-x="0" />
<glyph />
<glyph unicode="A" d="M346 885.5q0 -121.5 48 -212.5t97 -135t123 -67q80 -25 163 -25t165 31t136 93l640 772l-88 72l-640 -770q-77 -92 -246 -92q-124 0 -186 52q-87 77 -100 250q0 100 60 184l640 772q75 92 170 112q16 4 37 4q77 0 149 -60q48 -36 59 -71t-1 -59t-42 -60l-538 -648 q-14 -18 -30 -41t-23 -31t-18 -15q-17 -11 -49 9t-39 38t5 46q23 54 72 118l436 526l-86 74l-436 -526q-106 -126 -106 -209t55 -130q78 -67 127 -67q51 0 107 54q27 26 73 80l538 650q75 91 82 166v28t-26 65t-86 91q-110 92 -226 92q-156 0 -290 -164l-640 -770 q-86 -105 -86 -226.5z" />
<glyph unicode="B" d="M212 576h1600v1372h-1600v-1372zM326 690v1028h1372v-1028h-1372zM440 804h686v58l-10 40q-64 130 -332 132q-185 0 -279 -68q-51 -36 -65 -94v-68zM626 1286q0 -46 17 -90t54 -75t98 -31t103 61t42 121t-8 94t-22 57t-34 38t-43 22t-50 7t-50 -7t-43 -22t-34 -38 t-22 -57t-8 -80zM1126 1262h458v114h-458v-114zM1126 1490h458v114h-458v-114zM1240 804h344v114h-344v-114zM1240 1034h344v114h-344v-114z" />
<glyph unicode="C" d="M316 796l1140 1142l228 -228l-1140 -1142zM316 1710l228 228l1140 -1142l-228 -228z" />
<glyph unicode="D" d="M240 1470q0 -62 31 -114t83 -82v-260l344 228v114q0 62 30 115t83 83t115 30h458v114q0 62 -31 115t-84 84t-115 31h-686q-94 0 -161 -67t-67 -163v-228zM812 898q0 -46 33 -80t81 -34h458l342 -228v228q48 0 81 34t33 80v458q0 48 -24 72q-42 42 -90 42h-800 q-48 0 -81 -33t-33 -81v-458z" />
<glyph unicode="E" d="M208 1238q44 -46 116 -120t226 -257t230 -309q558 968 1028 1372h-228q-230 -152 -430 -352t-284 -324l-86 -124l-458 228z" />
<glyph unicode="F" d="M200 1253.5q0 -45.5 34 -79.5l456 -410q90 -80 196 -80h800q48 0 72 24q42 42 42 90v914q0 48 -24 72q-42 42 -90 42h-800q-106 0 -196 -80l-456 -410q-34 -37 -34 -82.5zM886 1026l228 230l-228 228l114 114l228 -228l230 228l114 -114l-230 -228l230 -230l-114 -114 l-230 230l-228 -230z" />
<glyph unicode="G" d="M200 448l458 228l-230 230zM544 1020l42 -42l684 686l-42 42zM692 880l80 -88l686 684l-92 100zM1342 1820l230 -230l228 230l-228 228z" />
<glyph unicode="H" d="M224 1546q0 -139 70 -238q82 -109 571 -579l159 -153q632 600 732 732q46 62 64 164q5 31 5 53v7q-1 24 -2 54t-12 74q-24 97 -83 152l-26 24q-117 112 -300 112q-114 0 -210 -58q-14 -7 -51 -41.5t-59 -60.5q-58 -69 -58 -128q0 50 -41 107t-83 91l-42 32 q-88 58 -208 58q-133 0 -241 -65q-35 -21 -61 -47l-26 -24q-58 -56 -78 -132t-20 -134z" />
<glyph unicode="I" d="M316 1826l570 -572h228l570 572h-1368zM316 1836h1368v114h-1368v-114zM886 560l228 228v456h-228v-684z" />
<glyph unicode="J" d="M208 820q0 -160 100 -273t242 -113q50 0 106 20q-102 90 -161 219t-59 255t53 245t155 291l-94 170q0 -86 -53 -205t-117 -218q-172 -266 -172 -391zM550 948q0 -212 134 -363t324 -151q124 0 229 69t167 188t62 257q0 242 -390 962q-68 128 -68 124q0 -155 -119 -370 q-79 -142 -175 -306t-130 -253t-34 -157zM1322 1684q258 -523 258 -736q0 -243 -151 -424q-35 -42 -77 -76q42 -6 56 -6q166 0 283 132t117 318q0 122 -141 356q-59 98 -118 199q-141 241 -141 395q-36 -64 -86 -158z" />
<glyph unicode="K" d="M316 562q0 -48 34 -81t73 -33t65 15q56 32 56 99v1372q0 74 -69 105q-20 9 -55.5 9t-69.5 -33t-34 -81v-1372zM660 1252q204 0 423 -82q91 -34 181 -69q208 -81 424 -81q-104 154 -228 370q124 156 228 312q-144 0 -240 26t-158 47t-116 43t-117 43t-122 37 q-133 36 -275 36v-682z" />
<glyph unicode="L" d="M220 893q0 -171 122 -291l44 -46q122 -120 292 -120t292 120q50 52 119 120t82 94t14 47t-2 42t-12 37q-22 39 -37 54l-200 -200q-82 -82 -200 -82q-282 0 -282 282q0 116 84 200l200 200q-17 17 -53.5 33.5t-66.5 16.5q-60 0 -110 -50l-164 -166q-122 -120 -122 -291z M614 950q0 -50 35 -86t86 -36t85 36l572 572q36 36 36 81q0 17 -5 35q-9 32 -38 61t-79 29t-86 -36l-570 -570q-36 -36 -36 -86zM854 1637.5q0 -22.5 15 -57.5q10 -22 37 -60l200 200q84 84 214 84q268 0 268 -284q0 -116 -82 -198l-200 -200q2 -2 4 -5t11 -9t19 -12t24 -12 t28 -10t32 -4t35 5q44 13 75 47l166 164q120 122 120 292t-120 290l-46 46q-122 122 -290 122q-170 0 -298 -128l-19 -19q-15 -15 -33 -32t-47 -46l-61 -61q-32 -32 -42 -61t-10 -51.5z" />
<glyph unicode="M" d="M544 696h912v228h-912v-228zM544 1152h912v228h-912v-228zM544 1608h912v228h-912v-228z" />
<glyph unicode="N" d="M300 684h228v228h-228v-228zM300 1140h228v228h-228v-228zM300 1598h228v228h-228v-228zM756 684h914v228h-914v-228zM756 1140h914v228h-914v-228zM756 1598h914v228h-914v-228z" />
<glyph unicode="O" d="M316 680h228v228h-228v-228zM316 1136h228v228h-228v-228zM316 1592h228v228h-228v-228zM772 680h912v228h-912v-228zM772 1136h570v228h-570v-228zM772 1592h912v228h-912v-228z" />
<glyph unicode="P" d="M218 803q0 -81 27 -145t73 -110q100 -100 242 -100t243 100t101 242q0 28 -4 56l328 164q102 -104 246 -104t244 100t100 242t-100 242t-243 100t-247 -104l-328 164q4 28 4 56q0 142 -101 242t-243 100q-92 0 -171 -46t-125 -125t-46 -160t27 -145t73 -110 q100 -100 244 -100t246 106l328 -166q-4 -24 -4 -53t4 -55l-328 -166q-102 106 -248 106q-92 0 -171 -46t-125 -125t-46 -160z" />
<glyph unicode="Q" d="M316 920q0 -94 66 -161t162 -67h684q62 0 115 31t84 83t31 114v358l-116 -114v-244q0 -44 -16 -62t-26 -26t-21 -14q-22 -12 -51 -12h-684q-48 0 -81 34t-33 80v458q0 46 33 80t81 34h472l114 114h-586q-96 0 -162 -67t-66 -161v-458zM1000 1234l86 -86l486 486v-370 l114 114v456h-458l-114 -114h372z" />
<glyph unicode="R" d="M236 734q0 -118 84 -202t202 -84t202 84t84 202t-84 202t-202 84q-78 0 -144 -39t-104 -104t-38 -143zM236 1328q292 0 520 -171q231 -174 316 -431q44 -134 44 -278h262q0 474 -334 808t-808 334v-262zM236 1786q272 0 519 -107t427 -286t286 -426t106 -519h262 q0 326 -127 622t-341 510t-510 341t-622 127v-262z" />
<glyph unicode="S" d="M210 1362l916 -914l684 686l-914 914h-456l-230 -228v-458zM440 1636q0 58 23 98q49 86 147 86q72 0 122 -51t50 -109t-23 -98q-49 -86 -149 -86q-70 0 -120 51t-50 109z" />
<glyph unicode="T" d="M434 676q0 -94 67 -161t161 -67h686q96 0 162 67t66 161v344q0 94 -66 161t-162 67h-686q-94 0 -161 -67t-67 -161v-344zM662 1706q0 -142 101 -243t243 -101t242 101t100 254t-130 257q-94 74 -200 74t-185 -46t-125 -125t-46 -171z" />
<glyph unicode="U" d="M242 906h114v-458h342v342h-114v686h-342v-570zM356 1819q0 -95 67 -162t161 -67q90 0 158 64q-44 80 -44 163t44 167q-68 64 -160 64t-159 -67t-67 -162zM698 906h114v-458h458v458h114v570h-686v-570zM812 1819q0 -95 67 -162t163 -67q62 0 114 31t83 84t31 99t-8 76 t-23 55t-36 46t-46 36q-52 31 -131.5 31t-146.5 -67t-67 -162zM1340 1654q66 -64 159 -64t160 67t67 163q0 93 -66 161q-65 67 -162 67h-6q-88 -2 -152 -64q44 -80 44 -164t-44 -166zM1384 448h342v458h116v570h-344v-686h-114v-342z" />
<glyph unicode="V" d="M202 1264q10 -31 52 -101.5t83 -124.5t110 -120t146 -113q185 -113 409 -113q246 0 461 148q90 62 192 185q74 89 139 219l8 20q-6 12 -15 32t-44 80t-76 114t-111 120t-146 113t-184 79t-225 32t-224 -31t-185 -81t-145 -111t-111 -122q-88 -122 -120 -195zM658 1264 q0 142 101 242t243 100t242 -100t100 -242t-100 -243t-242 -101t-243 101t-101 243zM830 1263q0 -71 50 -121t121 -50t121 50t50 109t-22 98t-62 62t-99 23t-109 -50t-50 -121z" />
<glyph unicode="W" d="M194 1238h228q0 77 14 184.5t20 159.5h-184q-78 -164 -78 -344zM202 1124q28 -191 136 -342h136q-34 208 -46 342h-226zM338 1696h136q14 80 32 176q-100 -76 -168 -176zM434 668q32 -32 72 -62l-12 62h-60zM536 1238h344v344h-308q-36 -234 -36 -344zM542 1124l46 -342 h292v342h-338zM588 1696h292v334q-130 -18 -246 -78q-6 -36 -13 -72q-16 -84 -33 -184zM608 668q8 -40 14 -76t12 -68q116 -58 246 -76v220h-272zM994 438q120 0 236 36q20 112 34 194h-270v-230zM994 782h290q34 208 46 342h-336v-342zM994 1238h342q0 114 -34 344h-308 v-344zM994 1696h290q-17 99 -32.5 184.5t-21.5 123.5q-123 34 -236 34v-342zM1354 524q116 60 200 144h-174q-8 -40 -14 -75t-12 -69zM1354 1952l44 -256h252q-116 166 -296 256zM1398 782h252q108 154 134 342h-340q-6 -114 -46 -342zM1416 1582q34 -234 34 -344h344 q0 180 -78 344h-300z" />
<glyph unicode="X" d="M120 620v1256h1698v-1256h-1698z" />
<glyph unicode="Y" d="M120 620v1256h1698v-1256h-1698z" />
<glyph unicode="Z" d="M120 620v1256h1698v-1256h-1698z" />
<glyph unicode="a" d="M182 1272l236 -352l236 352h-472zM300 1154h176q0 222 155 376t375 154q96 0 204 -42t150 -104l118 118q-92 92 -218 149t-254 57q-200 0 -364 -97t-253 -258t-89 -353zM536 654q92 -92 217 -149t265 -57t272 57t224 153t146 225t54 271h-178q0 -144 -70 -266t-192 -193 t-268 -71q-118 0 -237 58q-85 41 -115 90zM1360 1036h470l-234 354z" />
<glyph unicode="b" d="M218 1248l344 -342v228h228v228h-228v228zM676 790l342 -342l344 342h-230v230h-228v-230h-228zM676 1706h228v-230h228v230h230l-344 342zM1248 1134h228v-228l342 342l-342 342v-228h-228v-228z" />
<glyph unicode="c" d="M218 790q0 -140 101 -241t243 -101h914q142 0 242 101t100 241v916q0 140 -100 241t-242 101h-914q-94 0 -173 -46t-125 -125t-46 -171v-916zM676 734v56h56q40 0 46 9q12 18 12 53v344q0 38 -13 44q-18 8 -45 8h-56v58q0 35 32 51q10 5 24 5h516v-520q0 -45 26 -50 q10 -2 30 -2h58v-56q0 -37 -35 -53q-11 -5 -23 -5h-572q-30 0 -43 21t-13 37zM732 1648q0 46 39 86q84 86 247 86q140 0 231 -71q55 -43 55 -108t-83 -115t-202 -50t-203 50t-84 122z" />
<glyph unicode="d" d="M218 886h326l216 572l430 -914l310 572l136 -230h182v230h-106l-214 356l-298 -510l-442 954l-320 -800h-220v-230z" />
<glyph unicode="e" d="M334 1002h456v-458h456v458h458v456h-458v456h-456v-456h-456v-456z" />
<glyph unicode="f" d="M218 655q0 -49 45 -80t113 -31h1284q106 0 144 64q16 26 16 63t-32 89l-640 1066q-53 90 -130 90q-75 0 -128 -90l-640 -1066q-32 -56 -32 -105zM904 773q0 85 15 100t65 15h68q58 0 69 -16t11 -100t-13 -98t-52 -14h-49q-86 2 -100 15t-14 98zM904 1002v570h228v-570 h-228z" />
<glyph unicode="g" d="M218 1220l800 -562v344q428 0 671 -60q97 -24 129 -56l-114 230q-90 180 -548 308q-80 22 -138 34v344z" />
<glyph unicode="h" d="M448 1344l570 -800l572 800h-344v570h-456v-570h-342z" />
<glyph unicode="i" d="M218 886q32 32 130 56t199 35t225 17q165 8 246 8v-344l800 572l-800 572v-344q-64 -12 -162 -38t-285 -115t-239 -189z" />
<glyph unicode="j" d="M334 1230l798 -572v344h572v456h-572v342z" />
<glyph unicode="k" d="M334 1002h570v-344l800 572l-800 570v-342h-570v-456z" />
<glyph unicode="l" d="M448 1116h342v-572h456v572h344l-572 798z" />
<glyph unicode="m" d="M448 1116l570 -572l572 572v342l-458 -456v912h-228v-912l-456 456v-342z" />
<glyph unicode="n" d="M334 1118h912l-456 -458h342l572 572l-572 570h-342l456 -456h-912v-228z" />
<glyph unicode="o" d="M334 1118h912l-456 -458h342l572 572l-572 570h-342l456 -456h-912v-228z" />
<glyph unicode="p" d="M448 1004l456 456v-914h228v914l458 -456v342l-572 570l-570 -570v-342z" />
<glyph unicode="q" d="M620 1118l398 -572l400 572h-228v798h-342v-798h-228z" />
<glyph unicode="r" d="M334 1232l570 -400v228h800v344h-800v228z" />
<glyph unicode="s" d="M334 1060h798v-228l572 400l-572 400v-228h-798v-344z" />
<glyph unicode="t" d="M620 1346h228v-800h342v800h228l-400 570z" />
<glyph unicode="u" d="M448 1460l570 -570l570 570l-114 114l-456 -456l-456 456z" />
<glyph unicode="v" d="M676 1232l570 -570l114 114l-456 456l456 456l-114 114z" />
<glyph unicode="w" d="M676 776l114 -114l570 570l-570 570l-114 -114l456 -456z" />
<glyph unicode="x" d="M448 1004l114 -114l456 456l456 -456l114 114l-570 570z" />
<glyph unicode="y" d="M230 1482q0 -62 31 -114t83 -82v-260l342 228v114q0 97 67 162q68 66 161 66h458v114q0 96 -67 163t-161 67h-686q-94 0 -161 -67t-67 -163v-228zM800 910q0 -46 34 -80t80 -34h458l342 -228v228q64 0 100 58q16 26 16 56v458q0 48 -34 81t-82 33h-800q-64 0 -98 -56 q-16 -26 -16 -58v-458zM914 910v458h800v-458h-114v-128l-164 110l-30 18h-492z" />
<glyph unicode="z" d="M352 1476l684 -686l572 572l-686 686h-342l-228 -228v-344zM466 1020l570 -572h230l456 458l-204 204l-482 -480l-570 570v-180zM580 1648q0 70 50 121t121 51t121 -51t50 -121t-50 -121t-121 -51t-121 51t-50 121z" />
<glyph unicode="&#x2000;" horiz-adv-x="1024" />
<glyph unicode="&#x2001;" />
<glyph unicode="&#x2002;" horiz-adv-x="1024" />
<glyph unicode="&#x2003;" />
<glyph unicode="&#x2004;" horiz-adv-x="682" />
<glyph unicode="&#x2005;" horiz-adv-x="512" />
<glyph unicode="&#x2006;" horiz-adv-x="341" />
<glyph unicode="&#x2007;" horiz-adv-x="341" />
<glyph unicode="&#x2008;" horiz-adv-x="256" />
<glyph unicode="&#x2009;" horiz-adv-x="409" />
<glyph unicode="&#x200a;" horiz-adv-x="113" />
<glyph unicode="&#x202f;" horiz-adv-x="409" />
<glyph unicode="&#x205f;" horiz-adv-x="512" />
<glyph unicode="&#xe000;" horiz-adv-x="1570" d="M0 0v1570h1570v-1570h-1570z" />
</font>
</defs>
</svg>
